<svg width="8" height="17" viewBox="0 0 8 17" fill="none" xmlns="http://www.w3.org/2000/svg">
<path d="M6.88633 16.5322C7.14609 16.5327 7.39782 16.4423 7.59783 16.2765C7.7104 16.1832 7.80345 16.0686 7.87166 15.9392C7.93986 15.8099 7.98188 15.6684 7.9953 15.5227C8.00873 15.3771 7.9933 15.2303 7.94989 15.0907C7.90648 14.951 7.83596 14.8213 7.74235 14.709L2.7619 8.75025L7.56448 2.78038C7.65682 2.66667 7.72578 2.53582 7.7674 2.39537C7.80901 2.25492 7.82245 2.10762 7.80696 1.96196C7.79146 1.81629 7.74733 1.67513 7.6771 1.54657C7.60687 1.41802 7.51192 1.30461 7.39772 1.21287C7.2827 1.11166 7.148 1.03533 7.00207 0.988646C6.85615 0.941967 6.70215 0.925954 6.54974 0.941612C6.39733 0.957271 6.2498 1.00426 6.11642 1.07964C5.98303 1.15501 5.86667 1.25715 5.77463 1.37963L0.405075 8.04988C0.241563 8.2488 0.152175 8.49831 0.152175 8.75581C0.152175 9.01331 0.241563 9.26283 0.405075 9.46175L5.96362 16.132C6.07514 16.2665 6.21681 16.3729 6.37713 16.4424C6.53745 16.512 6.7119 16.5427 6.88633 16.5322Z" fill="#84C444"/>
</svg>
