<svg width="10" height="8" viewBox="0 0 10 8" fill="none" xmlns="http://www.w3.org/2000/svg">
<path d="M7.3657 7.18053C7.09299 7.18053 6.83391 7.1328 6.58847 7.03735C6.34303 6.92827 6.12485 6.77146 5.93395 6.56692C5.74305 6.36239 5.59306 6.11013 5.48398 5.81014C5.37489 5.49652 5.32035 5.12835 5.32035 4.70565C5.32035 4.32385 5.42943 3.87387 5.6476 3.35571C5.87941 2.82392 6.15894 2.3194 6.4862 1.84215C6.81346 1.35126 7.15435 0.942193 7.50888 0.614936C7.87704 0.274043 8.19066 0.103597 8.44974 0.103597C8.62701 0.103597 8.79063 0.151322 8.94063 0.246772C9.09062 0.328586 9.22016 0.437672 9.32924 0.574029C9.43833 0.69675 9.52014 0.839925 9.57469 1.00355C9.64287 1.15355 9.67696 1.2899 9.67696 1.41262C9.67696 1.52171 9.64968 1.58989 9.59514 1.61716C9.5406 1.6308 9.4656 1.65807 9.37015 1.69897C9.22016 1.73988 9.00199 1.91715 8.71564 2.23077C8.44292 2.54439 8.16339 2.89892 7.87704 3.29435C8.31338 3.40344 8.67473 3.62843 8.96108 3.96932C9.26107 4.31021 9.41106 4.71247 9.41106 5.17608C9.41106 5.46243 9.35652 5.72833 9.24743 5.97377C9.13834 6.20558 8.98835 6.41693 8.79745 6.60783C8.60655 6.78509 8.38838 6.92827 8.14294 7.03735C7.8975 7.1328 7.63842 7.18053 7.3657 7.18053ZM2.21141 7.18053C1.93869 7.18053 1.67961 7.1328 1.43417 7.03735C1.18873 6.92827 0.970557 6.77146 0.779657 6.56692C0.588757 6.36239 0.438764 6.11013 0.329679 5.81014C0.220593 5.49652 0.16605 5.12835 0.16605 4.70565C0.16605 4.32385 0.275136 3.87387 0.493307 3.35571C0.725114 2.82392 1.00465 2.3194 1.3319 1.84215C1.65916 1.35126 2.00005 0.942193 2.35458 0.614936C2.72275 0.274043 3.03637 0.103597 3.29544 0.103597C3.47271 0.103597 3.63634 0.151322 3.78633 0.246772C3.93632 0.328586 4.06586 0.437672 4.17495 0.574029C4.28403 0.69675 4.36585 0.839925 4.42039 1.00355C4.48857 1.15355 4.52266 1.2899 4.52266 1.41262C4.52266 1.52171 4.49539 1.58989 4.44084 1.61716C4.3863 1.6308 4.3113 1.65807 4.21585 1.69897C4.06586 1.73988 3.84769 1.91715 3.56134 2.23077C3.28863 2.54439 3.00909 2.89892 2.72275 3.29435C3.15909 3.40344 3.52725 3.62843 3.82724 3.96932C4.12722 4.31021 4.27722 4.71247 4.27722 5.17608C4.27722 5.46243 4.21585 5.72833 4.09313 5.97377C3.98405 6.20558 3.83406 6.41693 3.64316 6.60783C3.45226 6.78509 3.23408 6.92827 2.98864 7.03735C2.7432 7.1328 2.48412 7.18053 2.21141 7.18053Z" fill="white"/>
</svg>
