<svg width="18" height="34" viewBox="0 0 18 34" fill="none" xmlns="http://www.w3.org/2000/svg">
<path d="M14.6665 33.3335C15.2117 33.3346 15.74 33.1447 16.1598 32.7969C16.3961 32.601 16.5914 32.3604 16.7345 32.0889C16.8777 31.8174 16.9659 31.5204 16.9941 31.2148C17.0222 30.9092 16.9898 30.601 16.8987 30.3079C16.8076 30.0149 16.6596 29.7426 16.4631 29.5069L6.0098 17.0002L16.0898 4.47019C16.2836 4.23152 16.4284 3.95689 16.5157 3.6621C16.603 3.36731 16.6313 3.05816 16.5987 2.75243C16.5662 2.44669 16.4736 2.1504 16.3262 1.88059C16.1788 1.61077 15.9795 1.37274 15.7398 1.18019C15.4984 0.967768 15.2157 0.807544 14.9094 0.70957C14.6031 0.611595 14.2799 0.577986 13.96 0.610851C13.6401 0.643716 13.3305 0.742345 13.0505 0.90055C12.7706 1.05875 12.5263 1.27312 12.3331 1.53019L1.06313 15.5302C0.71994 15.9477 0.532328 16.4714 0.532328 17.0119C0.532328 17.5523 0.71994 18.076 1.06313 18.4935L12.7298 32.4935C12.9639 32.7759 13.2612 32.9991 13.5977 33.1451C13.9342 33.291 14.3004 33.3556 14.6665 33.3335Z" fill="#6D7175"/>
</svg>
