<svg width="22" height="20" viewBox="0 0 22 20" fill="none" xmlns="http://www.w3.org/2000/svg">
<path d="M10.7757 0.839802C10.9225 0.542673 11.3462 0.542674 11.4929 0.839801L13.8935 5.69943C14.1266 6.17146 14.5771 6.49858 15.0981 6.57422L20.4644 7.35328C20.7926 7.40093 20.9236 7.80431 20.686 8.03569L16.8041 11.8162C16.4266 12.1839 16.2543 12.7138 16.3434 13.2332L17.26 18.5723C17.3161 18.899 16.9732 19.1482 16.6798 18.9941L11.8783 16.4721C11.4125 16.2274 10.8561 16.2274 10.3903 16.4721L5.58887 18.9941C5.2954 19.1482 4.95254 18.899 5.00863 18.5723L5.92518 13.2332C6.01434 12.7138 5.84206 12.1839 5.46455 11.8162L1.58264 8.03569C1.34505 7.80431 1.47604 7.40093 1.80424 7.35328L7.1705 6.57422C7.69152 6.49858 8.14198 6.17146 8.37515 5.69943L10.7757 0.839802Z" stroke="#FFB22D" stroke-width="1.2"/>
</svg>
