<svg width="22" height="20" viewBox="0 0 22 20" fill="none" xmlns="http://www.w3.org/2000/svg">
<path d="M10.2158 0.57407C10.5827 -0.168749 11.642 -0.16875 12.0089 0.574069L14.4094 5.4337C14.5552 5.72872 14.8367 5.93317 15.1623 5.98044L20.5286 6.75951C21.3491 6.87862 21.6766 7.88708 21.0826 8.46553L17.2007 12.2461C16.9648 12.4759 16.8571 12.8071 16.9128 13.1317L17.8294 18.4708C17.9696 19.2876 17.1124 19.9107 16.3788 19.5253L11.5774 17.0033C11.2862 16.8504 10.9385 16.8504 10.6473 17.0033L5.8459 19.5253C5.11222 19.9107 4.25509 19.2876 4.39531 18.4708L5.31186 13.1317C5.36758 12.8071 5.25991 12.4759 5.02397 12.2461L1.14205 8.46553C0.548083 7.88708 0.875569 6.87862 1.69607 6.75951L7.06233 5.98044C7.38796 5.93317 7.6695 5.72872 7.81523 5.4337L10.2158 0.57407Z" fill="#FFB22D"/>
</svg>
