<svg width="13" height="13" viewBox="0 0 13 13" fill="none" xmlns="http://www.w3.org/2000/svg">
<path fill-rule="evenodd" clip-rule="evenodd" d="M6.09082 12.759C9.40453 12.759 12.0908 10.0727 12.0908 6.75903C12.0908 3.44532 9.40453 0.759033 6.09082 0.759033C2.77711 0.759033 0.0908203 3.44532 0.0908203 6.75903C0.0908203 10.0727 2.77711 12.759 6.09082 12.759Z" fill="#36B37E"/>
<path fill-rule="evenodd" clip-rule="evenodd" d="M5.12989 9.14184L3.17286 7.19653C3.11817 7.14185 3.09082 7.07153 3.09082 6.9856C3.09082 6.89966 3.11816 6.82935 3.17286 6.77466L3.60645 6.35279C3.66113 6.29029 3.7295 6.25904 3.81153 6.25904C3.89356 6.25904 3.96582 6.29029 4.02832 6.35279L5.34082 7.66529L8.15332 4.85279C8.21582 4.79029 8.28809 4.75903 8.37012 4.75903C8.45215 4.75903 8.52051 4.79028 8.57519 4.85279L9.00879 5.27466C9.06347 5.32935 9.09082 5.39966 9.09082 5.4856C9.09082 5.57154 9.06348 5.64185 9.00879 5.69653L5.55175 9.14185C5.49706 9.20435 5.42674 9.23561 5.34081 9.23561C5.25487 9.23561 5.18456 9.20436 5.12988 9.14185L5.12989 9.14184Z" fill="white"/>
</svg>
